<svg width="28" height="27" viewBox="0 0 28 27" fill="transparent" xmlns="http://www.w3.org/2000/svg">
	<path d="M19.833 23.625H8.16634C3.49967 23.625 2.33301 22.5 2.33301 18V9C2.33301 4.5 3.49967 3.375 8.16634 3.375H19.833C24.4997 3.375 25.6663 4.5 25.6663 9V18C25.6663 22.5 24.4997 23.625 19.833 23.625Z" stroke="currentColor" stroke-width="1.75" stroke-linecap="round" stroke-linejoin="round" />
	<path d="M16.333 9H22.1663" stroke="currentColor" stroke-width="1.75" stroke-linecap="round" stroke-linejoin="round" />
	<path d="M17.5 13.5H22.1667" stroke="currentColor" stroke-width="1.75" stroke-linecap="round" stroke-linejoin="round" />
	<path d="M19.833 18H22.1663" stroke="currentColor" stroke-width="1.75" stroke-linecap="round" stroke-linejoin="round" />
	<path d="M9.91733 12.7012C11.0836 12.7012 12.029 11.7895 12.029 10.6649C12.029 9.54032 11.0836 8.62866 9.91733 8.62866C8.75109 8.62866 7.80566 9.54032 7.80566 10.6649C7.80566 11.7895 8.75109 12.7012 9.91733 12.7012Z" stroke="currentColor" stroke-width="1.75" stroke-linecap="round" stroke-linejoin="round" />
	<path d="M13.9997 18.371C13.8363 16.7397 12.4947 15.4572 10.803 15.311C10.2197 15.2547 9.62467 15.2547 9.02967 15.311C7.33801 15.4685 5.99634 16.7397 5.83301 18.371" stroke="currentColor" stroke-width="1.75" stroke-linecap="round" stroke-linejoin="round" />
</svg>
