<svg width="10" height="26" viewBox="0 0 10 26" fill="currentColor" xmlns="http://www.w3.org/2000/svg">
<path d="M4.63553 0.502319C6.34119 0.502319 7.72392 1.88505 7.72392 3.59072C7.72392 5.29638 6.34119 6.67911 4.63553 6.67911C2.92986 6.67911 1.54713 5.29638 1.54713 3.59072C1.54713 1.88505 2.92986 0.502319 4.63553 0.502319ZM6.95182 7.45121H6.40363C5.30769 7.95515 4.01061 7.97692 2.86742 7.45121H2.31923C1.03996 7.45121 0.00292969 8.48824 0.00292969 9.76751V16.3304C0.00292969 16.97 0.521443 17.4885 1.16108 17.4885H1.93318V24.0514C1.93318 24.691 2.45169 25.2095 3.09133 25.2095H6.17973C6.81936 25.2095 7.33787 24.691 7.33787 24.0514V17.4885H8.10997C8.74961 17.4885 9.26812 16.97 9.26812 16.3304V9.76751C9.26812 8.48824 8.2311 7.45121 6.95182 7.45121Z" fill="currentColor"/>
</svg>
