<svg width="28" height="22" viewBox="0 0 28 22" fill="currentColor" xmlns="http://www.w3.org/2000/svg">
	<path d="M9.64899 20.8543H4.93565C2.59065 20.8543 1.45898 20.0018 1.45898 18.2418V3.7585C1.45898 1.9985 2.60232 1.146 4.93565 1.146H9.64899C11.994 1.146 13.1257 1.9985 13.1257 3.7585V18.2418C13.1257 20.0018 11.9823 20.8543 9.64899 20.8543ZM4.93565 2.521C3.45398 2.521 3.20898 2.83266 3.20898 3.7585V18.2418C3.20898 19.1677 3.45398 19.4793 4.93565 19.4793H9.64899C11.1307 19.4793 11.3757 19.1677 11.3757 18.2418V3.7585C11.3757 2.83266 11.1307 2.521 9.64899 2.521H4.93565Z" fill="currentColor" />
	<path d="M23.065 12.6043H18.3517C16.0067 12.6043 14.875 11.7518 14.875 9.99183V3.7585C14.875 1.9985 16.0183 1.146 18.3517 1.146H23.065C25.41 1.146 26.5417 1.9985 26.5417 3.7585V9.99183C26.5417 11.7518 25.3983 12.6043 23.065 12.6043ZM18.3517 2.521C16.87 2.521 16.625 2.83266 16.625 3.7585V9.99183C16.625 10.9177 16.87 11.2293 18.3517 11.2293H23.065C24.5467 11.2293 24.7917 10.9177 24.7917 9.99183V3.7585C24.7917 2.83266 24.5467 2.521 23.065 2.521H18.3517Z" fill="currentColor" />
	<path d="M23.065 20.8538H18.3517C16.0067 20.8538 14.875 20.0013 14.875 18.2413V16.5913C14.875 14.8313 16.0183 13.9788 18.3517 13.9788H23.065C25.41 13.9788 26.5417 14.8313 26.5417 16.5913V18.2413C26.5417 20.0013 25.3983 20.8538 23.065 20.8538ZM18.3517 15.3538C16.87 15.3538 16.625 15.6654 16.625 16.5913V18.2413C16.625 19.1671 16.87 19.4788 18.3517 19.4788H23.065C24.5467 19.4788 24.7917 19.1671 24.7917 18.2413V16.5913C24.7917 15.6654 24.5467 15.3538 23.065 15.3538H18.3517Z" fill="currentColor" />
</svg>
