<svg width="14" height="26" viewBox="0 0 14 26" fill="currentColor" xmlns="http://www.w3.org/2000/svg">
	<path d="M7.00051 0C8.79543 0 10.2505 1.45509 10.2505 3.25C10.2505 5.04491 8.79543 6.5 7.00051 6.5C5.2056 6.5 3.75051 5.04491 3.75051 3.25C3.75051 1.45509 5.2056 0 7.00051 0ZM13.0579 17.9857L10.6204 8.23565C10.5544 7.97197 10.4023 7.7379 10.188 7.57063C9.9738 7.40336 9.70981 7.3125 9.43801 7.3125H8.86114C7.70785 7.84281 6.3429 7.86571 5.13989 7.3125H4.56301C4.29122 7.3125 4.02722 7.40336 3.813 7.57063C3.59877 7.7379 3.4466 7.97197 3.38067 8.23565L0.943174 17.9857C0.75112 18.7538 1.33246 19.5 2.12551 19.5H4.96926V24.7812C4.96926 25.4544 5.51491 26 6.18801 26H7.81301C8.48612 26 9.03176 25.4544 9.03176 24.7812V19.5H11.8755C12.6672 19.5 13.2502 18.755 13.0579 17.9857Z" fill="currentColor" />
</svg>
