<svg xmlns:dc="http://purl.org/dc/elements/1.1/" xmlns:cc="http://creativecommons.org/ns#" xmlns:rdf="http://www.w3.org/1999/02/22-rdf-syntax-ns#" xmlns:svg="http://www.w3.org/2000/svg" xmlns="http://www.w3.org/2000/svg" xmlns:sodipodi="http://sodipodi.sourceforge.net/DTD/sodipodi-0.dtd" xmlns:inkscape="http://www.inkscape.org/namespaces/inkscape" fill="currentColor" version="1.1" x="0px" y="0px" viewBox="0 0 100 125">
	<path style="font-size:medium;font-style:normal;font-variant:normal;font-weight:normal;font-stretch:normal;text-indent:0;text-align:start;text-decoration:none;line-height:normal;letter-spacing:normal;word-spacing:normal;text-transform:none;direction:ltr;block-progression:tb;writing-mode:lr-tb;text-anchor:start;baseline-shift:baseline;opacity:1;color:currentColor;fill:currentColor;fill-opacity:1;stroke:none;stroke-width:3.99999976000000010;marker:none;visibility:visible;display:inline;overflow:visible;enable-background:accumulate;font-family:Sans;-inkscape-font-specification:Sans" d="M 19.84375 6 A 2.0002002 2.0002002 0 0 0 18.03125 7.9375 L 17.71875 19.90625 L 8.6875 27.84375 A 2.0002002 2.0002002 0 0 0 9.46875 31.28125 L 21.1875 34.40625 L 25.65625 45.28125 A 2.0002002 2.0002002 0 0 0 29.125 45.71875 L 36.28125 36.15625 L 48.15625 34.71875 A 2.0002002 2.0002002 0 0 0 49.53125 31.5 L 42.34375 22.1875 L 45.46875 10.5 A 2.0002002 2.0002002 0 0 0 42.90625 8.09375 L 31.5625 11.9375 L 21 6.25 A 2.0002002 2.0002002 0 0 0 19.84375 6 z M 21.9375 11.28125 L 30.40625 15.875 A 2.0002002 2.0002002 0 0 0 32 16 L 40.65625 13.0625 L 38.21875 22.125 A 2.0002002 2.0002002 0 0 0 38.5625 23.84375 L 44.21875 31.15625 L 34.96875 32.25 A 2.0002002 2.0002002 0 0 0 33.59375 33.0625 L 28.03125 40.5 L 24.5 31.96875 A 2.0002002 2.0002002 0 0 0 23.1875 30.8125 L 14.125 28.375 L 21 22.34375 A 2.0002002 2.0002002 0 0 0 21.6875 20.90625 L 21.9375 11.28125 z M 81.875 17.03125 A 2.0001999 2.0001999 0 0 0 81.03125 17.28125 L 72.75 21.75 L 63.84375 18.71875 A 2.0001999 2.0001999 0 0 0 61.28125 21.125 L 63.71875 30.3125 L 58.125 37.5625 A 2.0001999 2.0001999 0 0 0 59.46875 40.78125 L 68.8125 41.90625 L 74.40625 49.40625 A 2.0001999 2.0001999 0 0 0 77.875 48.96875 L 81.375 40.46875 L 90.53125 38.03125 A 2.0001999 2.0001999 0 0 0 91.3125 34.59375 L 84.25 28.375 L 83.96875 18.96875 A 2.0001999 2.0001999 0 0 0 81.875 17.03125 z M 80.09375 22.34375 L 80.28125 29.34375 A 2.0001999 2.0001999 0 0 0 80.9375 30.8125 L 85.875 35.125 L 79.375 36.875 A 2.0001999 2.0001999 0 0 0 78.03125 38.03125 L 75.5 44.1875 L 71.46875 38.8125 A 2.0001999 2.0001999 0 0 0 70.125 38 L 63.4375 37.21875 L 67.5 31.9375 A 2.0001999 2.0001999 0 0 0 67.84375 30.21875 L 66.09375 23.71875 L 72.3125 25.8125 A 2.0001999 2.0001999 0 0 0 73.90625 25.6875 L 80.09375 22.34375 z M 49.84375 43.15625 A 2.0001999 2.0001999 0 0 0 48.28125 44.09375 L 39.8125 57.875 L 23.9375 61.03125 A 2.0001999 2.0001999 0 0 0 22.90625 64.40625 L 34.5 76 L 32.40625 91.75 A 2.0001999 2.0001999 0 0 0 35.15625 93.84375 L 50 87.5 L 64.84375 93.84375 A 2.0001999 2.0001999 0 0 0 67.59375 91.75 L 65.5 76 L 77.09375 64.40625 A 2.0001999 2.0001999 0 0 0 76.0625 61.03125 L 60.1875 57.875 L 51.71875 44.09375 A 2.0001999 2.0001999 0 0 0 49.84375 43.15625 z M 50 48.96875 L 57.21875 60.6875 A 2.0001999 2.0001999 0 0 0 58.53125 61.59375 L 71.59375 64.21875 L 61.96875 73.84375 A 2.0001999 2.0001999 0 0 0 61.40625 75.53125 L 63.15625 88.78125 L 50.78125 83.46875 A 2.0001999 2.0001999 0 0 0 49.21875 83.46875 L 36.84375 88.78125 L 38.59375 75.53125 A 2.0001999 2.0001999 0 0 0 38.03125 73.84375 L 28.40625 64.21875 L 41.46875 61.59375 A 2.0001999 2.0001999 0 0 0 42.78125 60.6875 L 50 48.96875 z " />
</svg>
