<svg width="27" height="26" viewBox="0 0 27 26" fill="currentColor" xmlns="http://www.w3.org/2000/svg">
	<path d="M13.501 17.0625C11.1722 17.0625 9.28223 15.2425 9.28223 13C9.28223 10.7575 11.1722 8.9375 13.501 8.9375C15.8297 8.9375 17.7197 10.7575 17.7197 13C17.7197 15.2425 15.8297 17.0625 13.501 17.0625ZM13.501 10.5625C12.106 10.5625 10.9697 11.6567 10.9697 13C10.9697 14.3433 12.106 15.4375 13.501 15.4375C14.896 15.4375 16.0322 14.3433 16.0322 13C16.0322 11.6567 14.896 10.5625 13.501 10.5625Z" fill="#7B7B7B" />
	<path d="M17.1113 24.0391C16.875 24.0391 16.6388 24.0066 16.4025 23.9524C15.705 23.7682 15.12 23.3457 14.7488 22.7499L14.6138 22.5332C13.95 21.4282 13.0388 21.4282 12.375 22.5332L12.2513 22.7391C11.88 23.3457 11.295 23.7791 10.5975 23.9524C9.88875 24.1366 9.1575 24.0391 8.53875 23.6816L6.60375 22.6091C5.9175 22.2299 5.4225 21.6124 5.20875 20.8649C5.00625 20.1174 5.1075 19.3482 5.50125 18.6874C5.8275 18.1349 5.9175 17.6366 5.72625 17.3224C5.535 17.0082 5.05125 16.8241 4.3875 16.8241C2.745 16.8241 1.40625 15.5349 1.40625 13.9532V12.0466C1.40625 10.4649 2.745 9.17574 4.3875 9.17574C5.05125 9.17574 5.535 8.99157 5.72625 8.6774C5.9175 8.36324 5.83875 7.8649 5.50125 7.3124C5.1075 6.65157 5.00625 5.87157 5.20875 5.1349C5.41125 4.3874 5.90625 3.7699 6.60375 3.39074L8.55 2.31824C9.82125 1.5924 11.4975 2.0149 12.2625 3.26074L12.3975 3.4774C13.0613 4.5824 13.9725 4.5824 14.6363 3.4774L14.76 3.27157C15.525 2.0149 17.2013 1.5924 18.4838 2.32907L20.4188 3.40157C21.105 3.78074 21.6 4.39824 21.8138 5.14574C22.0163 5.89324 21.915 6.6624 21.5213 7.32324C21.195 7.87574 21.105 8.37407 21.2963 8.68824C21.4875 9.0024 21.9713 9.18657 22.635 9.18657C24.2775 9.18657 25.6163 10.4757 25.6163 12.0574V13.9641C25.6163 15.5457 24.2775 16.8349 22.635 16.8349C21.9713 16.8349 21.4875 17.0191 21.2963 17.3332C21.105 17.6474 21.1838 18.1457 21.5213 18.6982C21.915 19.3591 22.0275 20.1391 21.8138 20.8757C21.6113 21.6232 21.1163 22.2407 20.4188 22.6199L18.4725 23.6924C18.045 23.9199 17.5838 24.0391 17.1113 24.0391ZM13.5 20.0307C14.5013 20.0307 15.435 20.6374 16.0763 21.7099L16.2 21.9157C16.335 22.1432 16.56 22.3057 16.83 22.3707C17.1 22.4357 17.37 22.4032 17.595 22.2732L19.5413 21.1899C19.8338 21.0274 20.0588 20.7566 20.1488 20.4316C20.2388 20.1066 20.1938 19.7707 20.025 19.4891C19.3838 18.4274 19.305 17.3332 19.8 16.4991C20.295 15.6649 21.3188 15.1882 22.6013 15.1882C23.3213 15.1882 23.895 14.6357 23.895 13.9424V12.0357C23.895 11.3532 23.3213 10.7899 22.6013 10.7899C21.3188 10.7899 20.295 10.3132 19.8 9.47907C19.305 8.6449 19.3838 7.55074 20.025 6.48907C20.1938 6.2074 20.2388 5.87157 20.1488 5.54657C20.0588 5.22157 19.845 4.96157 19.5525 4.78824L17.6063 3.71574C17.1225 3.43407 16.4813 3.59657 16.1888 4.07324L16.065 4.27907C15.4238 5.35157 14.49 5.95824 13.4888 5.95824C12.4875 5.95824 11.5538 5.35157 10.9125 4.27907L10.7888 4.0624C10.5075 3.6074 9.8775 3.4449 9.39375 3.71574L7.4475 4.79907C7.155 4.96157 6.93 5.2324 6.84 5.5574C6.75 5.8824 6.795 6.21824 6.96375 6.4999C7.605 7.56157 7.68375 8.65574 7.18875 9.4899C6.69375 10.3241 5.67 10.8007 4.3875 10.8007C3.6675 10.8007 3.09375 11.3532 3.09375 12.0466V13.9532C3.09375 14.6357 3.6675 15.1991 4.3875 15.1991C5.67 15.1991 6.69375 15.6757 7.18875 16.5099C7.68375 17.3441 7.605 18.4382 6.96375 19.4999C6.795 19.7816 6.75 20.1174 6.84 20.4424C6.93 20.7674 7.14375 21.0274 7.43625 21.2007L9.3825 22.2732C9.61875 22.4141 9.9 22.4466 10.1588 22.3816C10.4288 22.3166 10.6538 22.1432 10.8 21.9157L10.9238 21.7099C11.565 20.6482 12.4988 20.0307 13.5 20.0307Z" fill="currentColor" />
</svg>
